<svg width="22" height="48" viewBox="0 0 22 48" fill="none" xmlns="http://www.w3.org/2000/svg">
<path d="M21.1615 19.1019C18.6327 7.94632 13.3621 4.97657 12.0177 2.87726C11.4633 1.95246 10.9721 0.991175 10.5476 0C10.4766 0.991019 10.3461 1.61536 9.50378 2.36688C7.81244 3.87488 0.629202 9.7285 0.0246809 22.4036C-0.538548 34.2215 8.71261 41.5088 9.93487 42.262C10.8747 42.7245 12.0193 42.2719 12.5776 41.8474C17.0372 38.7868 23.1303 30.6274 21.1664 19.1019" fill="#10AA50"/>
<path d="M10.9308 35.969C10.6979 38.8942 10.5311 40.5938 9.93982 42.2653C9.93982 42.2653 10.328 45.0501 10.6005 48H11.5651C11.7952 45.9227 12.1465 43.8606 12.6172 41.8243C11.3685 41.2099 10.9787 38.5358 10.9308 35.969Z" fill="#B8C4C2"/>
<path d="M12.6156 41.826C11.3537 41.2429 10.9887 38.5127 10.9325 35.969C11.2446 31.7732 11.3355 27.5638 11.205 23.3583C11.139 21.1517 11.2364 2.92021 10.6616 0.251068C11.0548 1.15508 11.5078 2.03187 12.0177 2.87562C13.3621 4.97658 18.6344 7.94633 21.1615 19.1019C23.1303 30.6076 17.0702 38.7455 12.6156 41.826Z" fill="#12924F"/>
</svg>
