<svg width="48" height="48" viewBox="0 0 48 48" fill="none" xmlns="http://www.w3.org/2000/svg">
<path fill-rule="evenodd" clip-rule="evenodd" d="M28.263 0C27.9159 0 27.5936 0.0746718 27.2961 0.174228C27.9283 0.597353 28.2753 1.15738 28.4489 1.79206C28.4613 1.87918 28.4861 1.9414 28.4985 2.02851C28.5109 2.10318 28.5233 2.17785 28.5233 2.25253C28.5729 3.34767 28.2382 3.48456 28.0026 4.1317C27.6431 4.96551 27.7423 5.86154 28.1762 6.58334C28.2134 6.67045 28.263 6.77001 28.3249 6.85713C27.8539 3.70857 30.4695 3.23567 30.9529 2.25253C30.9901 1.39383 30.2835 0.821362 29.7257 0.423125C29.1927 0.0995596 28.7092 0 28.263 0ZM32.2049 0.709359C32.1553 0.99559 32.1925 0.92092 32.1801 1.07026C32.1677 1.16982 32.1677 1.29427 32.1554 1.39383C32.1306 1.49339 32.1058 1.59294 32.0686 1.69251C32.0438 1.79206 32.0066 1.89162 31.9694 1.99118C31.9198 2.09074 31.8826 2.17785 31.8331 2.27741C31.7959 2.32721 31.7711 2.37697 31.7339 2.42675C31.7091 2.46409 31.6843 2.50142 31.6595 2.53876C31.5975 2.62587 31.5356 2.71298 31.4736 2.78765C31.3992 2.86232 31.3372 2.94943 31.2504 3.01166V3.02412C31.1761 3.08635 31.1017 3.16102 31.0149 3.22324C30.7546 3.42236 30.4571 3.5717 30.1844 3.75837C30.0976 3.82059 30.0108 3.87038 29.9365 3.94505C29.8497 4.00727 29.7753 4.06949 29.7009 4.14416C29.6142 4.21883 29.5522 4.2935 29.4778 4.38062C29.4158 4.45529 29.3414 4.5424 29.2919 4.62951C29.2299 4.71663 29.1679 4.80374 29.1183 4.89085C29.0687 4.99041 29.0315 5.07753 28.982 5.17709C28.9448 5.27664 28.9076 5.36376 28.8828 5.46332C28.8456 5.57532 28.8208 5.67488 28.796 5.77444C28.7836 5.82424 28.7836 5.88644 28.7712 5.93622C28.7588 5.98602 28.7588 6.03578 28.7465 6.08556C28.7465 6.18512 28.7341 6.29713 28.7341 6.39668C28.7341 6.47135 28.7341 6.54602 28.7465 6.62069C28.7465 6.72025 28.7589 6.81981 28.7837 6.93181C28.7961 7.03137 28.8208 7.13093 28.8456 7.23049C28.8828 7.33005 28.9076 7.42961 28.9448 7.52917C28.9696 7.5914 29.0068 7.65362 29.0316 7.70339L26.1805 6.5958C25.697 6.45891 25.226 6.33446 24.7425 6.22246C24.4822 6.16023 24.2219 6.09801 23.9616 6.03578C23.2178 5.88644 22.4617 5.77444 21.7055 5.69978C21.6807 5.69978 21.6683 5.68731 21.6435 5.68731C20.8998 5.61264 20.1684 5.57531 19.4246 5.57531C18.8792 5.57531 18.3338 5.60018 17.8007 5.63753C17.0446 5.68733 16.2884 5.78687 15.5323 5.91132C15.3463 5.93619 15.1604 5.97355 14.9744 6.01088C14.5902 6.08555 14.2183 6.17266 13.8588 6.25978C13.6728 6.30958 13.4869 6.35934 13.301 6.40911C13.115 6.48378 12.9415 6.5709 12.7679 6.64557C12.6316 6.70779 12.4952 6.77002 12.3589 6.83224C12.3341 6.8447 12.3093 6.8447 12.2969 6.85711C12.1729 6.91934 12.0614 6.96911 11.9498 7.03134C11.9126 7.0438 11.8878 7.05621 11.863 7.06868C11.7267 7.1309 11.5903 7.20557 11.4787 7.26779C11.392 7.30513 11.3052 7.35491 11.2308 7.39224C11.1936 7.41711 11.144 7.44204 11.1193 7.45447C11.0077 7.51669 10.8961 7.57891 10.797 7.64114C10.6854 7.70336 10.5862 7.76559 10.4995 7.82781C10.4127 7.89004 10.3259 7.93981 10.2515 8.00204C10.2391 8.0145 10.2268 8.0145 10.2143 8.02691C10.14 8.07671 10.0532 8.13891 9.97882 8.20114C9.97882 8.20114 9.9664 8.2136 9.95405 8.22601C9.89207 8.27581 9.83008 8.32557 9.7681 8.37535C9.74333 8.38781 9.7185 8.41268 9.69373 8.42514C9.63175 8.47495 9.56977 8.53715 9.50779 8.58693C9.49537 8.6118 9.4706 8.62427 9.45819 8.63673C9.38381 8.7114 9.30943 8.77362 9.23506 8.84829C9.22264 8.84829 9.22264 8.86076 9.21028 8.87316C9.13591 8.93539 9.06153 9.01006 8.98715 9.08473C8.97474 9.09719 8.97474 9.1096 8.96238 9.1096C8.9004 9.17182 8.83842 9.23405 8.77644 9.30871C8.75166 9.33358 8.71446 9.35851 8.68967 9.38338C8.62769 9.45805 8.55331 9.53272 8.47893 9.60739C8.46652 9.63226 8.44175 9.64473 8.42933 9.66961C8.33016 9.76918 8.24339 9.86874 8.14422 9.96829C8.1318 9.98076 8.11945 9.99316 8.10703 10.0056C7.90869 10.2172 7.69796 10.4288 7.47483 10.6154C7.2517 10.8145 7.01618 11.0012 6.78065 11.163C6.53273 11.3372 6.29721 11.4866 6.03689 11.6359C5.78896 11.7728 5.52865 11.8972 5.25593 12.0093C4.99562 12.1213 4.7229 12.2208 4.45019 12.3079C3.92955 12.4199 3.39652 12.6315 2.93787 12.6688C2.8387 12.6688 2.72713 12.6937 2.62797 12.7062C2.5164 12.731 2.41723 12.756 2.31807 12.7808C2.2189 12.8182 2.11973 12.8555 2.02056 12.8928C1.92139 12.9302 1.82222 12.98 1.72306 13.0297C1.63628 13.092 1.53711 13.1417 1.45034 13.204C1.36357 13.2662 1.27679 13.3408 1.20242 13.4155C1.11565 13.4777 1.02887 13.5649 0.954496 13.6395C0.880119 13.7266 0.805742 13.8013 0.743763 13.8884C0.681785 13.988 0.607408 14.0751 0.557821 14.1747C0.495842 14.2618 0.433863 14.3613 0.384276 14.4609C0.334672 14.5729 0.285109 14.6725 0.24792 14.7845C0.210732 14.884 0.173544 14.996 0.136355 15.108C0.111582 15.2076 0.0867512 15.3071 0.0743764 15.4067C0.0743764 15.4192 0.0619612 15.4316 0.0619612 15.444C0.0371882 15.556 0.0371882 15.7054 0.0247726 15.7801C0.0123574 15.8672 0 15.9418 0 16.029C0 16.0788 3.85899e-08 16.141 0.0124152 16.1907C0.0248303 16.2779 0.0371877 16.3525 0.0620192 16.4272C0.086792 16.5019 0.111623 16.5765 0.148788 16.6512V16.6637C0.185977 16.7383 0.235564 16.813 0.285144 16.8877C0.334748 16.9623 0.384318 17.037 0.446296 17.1117C0.508275 17.1739 0.582652 17.2486 0.657029 17.3108C0.731406 17.3855 0.805783 17.4477 0.892552 17.5099C1.19006 17.7713 1.26444 17.8584 1.64872 18.0575C1.71069 18.0948 1.77268 18.1197 1.84706 18.157C1.85947 18.157 1.87183 18.1695 1.88424 18.1695C1.88424 18.1944 1.88424 18.2068 1.89666 18.2317C1.90908 18.3313 1.93385 18.4308 1.95864 18.5304C1.98341 18.6424 2.02062 18.742 2.05781 18.8291C2.095 18.9038 2.11979 18.9784 2.15698 19.0531C2.1694 19.078 2.18175 19.1029 2.19417 19.1153C2.24377 19.2149 2.29334 19.302 2.34292 19.3891C2.4049 19.4762 2.46688 19.5633 2.52886 19.6505C2.59084 19.7251 2.66522 19.8122 2.73959 19.8869C2.81397 19.9616 2.88835 20.0238 2.97512 20.0985C2.97512 20.0985 2.98754 20.1109 2.99989 20.1109C3.07427 20.1732 3.14865 20.2354 3.22303 20.2852C3.30979 20.3474 3.39657 20.3972 3.49574 20.447C3.58251 20.4968 3.68168 20.5465 3.78085 20.5838C3.85522 20.6212 3.94199 20.6461 4.02877 20.671C4.04119 20.6834 4.05354 20.6834 4.07837 20.6958C4.12798 20.7083 4.18993 20.7207 4.23952 20.7332C4.20233 21.4052 4.18991 22.0399 4.28912 22.2639C4.40068 22.5128 4.94611 21.7537 5.49154 20.8825C5.41716 21.7412 5.36758 22.7492 5.49154 23.0479C5.6279 23.359 6.37166 22.3883 7.01626 21.3181C15.8051 19.2771 23.8253 25.3751 24.6683 33.987C24.5071 32.6429 22.8584 31.8962 22.1023 32.0829C21.7304 33.0038 21.0982 34.1861 20.0817 34.9203C20.1685 34.099 20.1313 33.2527 19.9578 32.4314C19.685 33.5763 19.152 34.6465 18.4206 35.5675C17.243 35.6546 16.0654 35.0821 15.4456 34.2234C15.396 34.1861 15.3836 34.1114 15.3464 34.0616C15.3092 33.9745 15.272 33.8874 15.2472 33.8003C15.2101 33.7132 15.1853 33.6261 15.1729 33.5389C15.1605 33.4518 15.1605 33.3647 15.1605 33.2652C15.1605 33.2029 15.1605 33.1407 15.1605 33.0785C15.1729 32.9914 15.1976 32.9043 15.2224 32.8171C15.2472 32.73 15.272 32.6429 15.3092 32.5558C15.3588 32.4687 15.396 32.3816 15.458 32.2945C15.6687 31.6971 15.6687 31.2118 15.2844 30.9255C15.21 30.8757 15.1357 30.8384 15.0489 30.8011C14.9993 30.7886 14.9373 30.7637 14.8877 30.7513C14.8506 30.7388 14.8258 30.7264 14.7886 30.7139C14.7018 30.6891 14.615 30.6641 14.5283 30.6517C14.4415 30.6268 14.3547 30.6144 14.2679 30.6144C14.1812 30.6019 14.082 30.5895 13.9952 30.5895C13.9332 30.5895 13.8713 30.602 13.8093 30.602C13.7101 30.602 13.6233 30.6144 13.5366 30.6393C13.4498 30.6518 13.363 30.6642 13.2763 30.6891C13.1895 30.714 13.1027 30.7389 13.0159 30.7762C12.9292 30.8136 12.8548 30.8509 12.768 30.8882C12.6936 30.9256 12.6193 30.9753 12.5325 31.0127C9.6442 32.9043 11.3673 37.3347 13.3382 38.6165C12.5945 38.7534 11.8383 38.9152 11.6276 39.0769C11.6152 39.0894 11.6028 39.1018 11.6028 39.1018C12.1358 39.4254 12.6937 39.6992 13.2763 39.9356C14.0696 40.197 14.9125 40.4334 15.2844 40.533V40.5454C16.3133 40.757 17.3546 40.8317 18.4082 40.7695C23.8997 40.3837 28.3995 36.1897 29.2176 30.6642C29.2424 30.7762 29.2672 30.8758 29.292 30.9878C29.3292 31.2118 29.3788 31.4482 29.4036 31.6847V31.6972C29.4283 31.8092 29.4407 31.9212 29.4532 32.0207V32.0705C29.4656 32.1825 29.4779 32.2945 29.4779 32.3941C29.4904 32.531 29.5027 32.6679 29.5027 32.8048V33.0039C29.5027 33.0661 29.5151 33.1408 29.5151 33.203C29.5151 33.2777 29.5027 33.3524 29.5027 33.427V33.6013C29.5027 33.6884 29.4903 33.763 29.4903 33.8502C29.4903 33.8999 29.4903 33.9497 29.4779 34.0119C29.4779 34.0991 29.4655 34.1862 29.4655 34.2857C29.453 34.3231 29.453 34.3604 29.453 34.3977C29.4406 34.4973 29.4283 34.5844 29.4158 34.684C29.4158 34.7213 29.4158 34.7586 29.4034 34.796C29.391 34.9204 29.3662 35.0324 29.3538 35.1569V35.1693V35.1818C29.3291 35.2938 29.3042 35.4183 29.2794 35.5303V35.5676C29.2547 35.6796 29.2298 35.7916 29.2051 35.9036C29.2051 35.9161 29.1927 35.9409 29.1927 35.9534C29.1679 36.0654 29.1431 36.1774 29.1059 36.2894V36.3267C29.0687 36.4512 29.0315 36.5632 29.0067 36.6752C28.9943 36.6877 28.9943 36.7001 28.9943 36.7001C28.9571 36.8245 28.9199 36.949 28.8827 37.0734C28.8331 37.1979 28.796 37.3099 28.7464 37.4343C28.6968 37.5588 28.6596 37.6832 28.61 37.7952C28.5604 37.9197 28.5109 38.0317 28.4613 38.1561H28.4489C28.3992 38.2681 28.3497 38.3926 28.2877 38.5046C28.2753 38.5419 28.2629 38.5668 28.2505 38.5917C28.2381 38.6042 28.2381 38.6166 28.2257 38.629C27.42 40.2593 26.23 41.6905 24.7424 42.8105C24.6433 42.8727 24.5441 42.9474 24.4449 43.0221C24.4202 43.0469 24.383 43.0594 24.3582 43.0843C24.2714 43.1465 24.1846 43.2087 24.0855 43.271L24.1226 43.3456H24.1351C24.3086 43.3208 24.4821 43.2958 24.6557 43.271H24.6681C24.9904 43.2212 25.3127 43.159 25.635 43.0967C25.7218 43.0843 25.8209 43.0594 25.9077 43.0345C25.9697 43.022 26.0193 43.0096 26.0812 42.9972C26.168 42.9847 26.2548 42.9598 26.3416 42.9474C26.4159 42.9225 26.4903 42.91 26.5647 42.8852C27.8043 42.5865 29.0067 42.1758 30.1596 41.6904C28.1886 44.391 25.5482 46.5688 22.4616 48C23.8871 47.9004 25.3127 47.664 26.6887 47.2658C31.6843 45.7848 35.8865 42.4122 38.4029 37.8699C37.8947 40.7446 36.7543 43.4825 35.0684 45.8719C36.2708 45.0754 37.3741 44.1545 38.3782 43.1092C41.1549 40.1971 42.9771 36.5009 43.5969 32.531C44.0184 34.4973 44.1423 36.5258 43.9564 38.5294C52.9064 25.9975 44.7002 13.005 41.2664 9.58266C41.254 9.55779 41.2417 9.54533 41.2417 9.52044C41.2292 9.5329 41.2292 9.5329 41.2292 9.54531C41.2292 9.53285 41.2292 9.53285 41.2168 9.52044C41.2168 9.66978 41.2044 9.81911 41.1921 9.96845C41.1549 10.2547 41.1177 10.5285 41.0681 10.8023C41.0061 11.076 40.9317 11.3498 40.8574 11.6236C40.7706 11.885 40.6714 12.1587 40.5599 12.4201C40.4483 12.669 40.3243 12.9303 40.188 13.1792C40.0516 13.4157 39.9029 13.6646 39.7417 13.8886C39.5806 14.125 39.407 14.3491 39.2335 14.5606C39.0475 14.7846 38.8492 14.9837 38.6509 15.1829C38.5269 15.2949 38.4153 15.3944 38.2914 15.494C38.1922 15.5811 38.1054 15.6558 38.0063 15.7429C37.7831 15.9171 37.56 16.0789 37.3121 16.2282C37.0766 16.3776 36.8286 16.5269 36.5807 16.6514C36.3204 16.7758 36.0601 16.8878 35.7998 16.9998C35.5394 17.0994 35.2667 17.1865 34.994 17.2612C34.7213 17.3358 34.4362 17.398 34.1635 17.4478C33.8784 17.4976 33.5933 17.5225 33.3205 17.5474C33.1222 17.5598 32.9239 17.5723 32.7255 17.5723C32.4404 17.5723 32.1553 17.5474 31.8826 17.5225C31.5975 17.4976 31.3124 17.4602 31.0397 17.398C30.7546 17.3482 30.4818 17.2736 30.2091 17.1864H30.1967C30.4694 17.1616 30.7421 17.1366 31.0149 17.0869C31.3 17.0371 31.5727 16.9749 31.8454 16.9002C32.1181 16.8255 32.3908 16.7384 32.6511 16.6389C32.9239 16.5393 33.1842 16.4149 33.4321 16.2904C33.6924 16.166 33.9279 16.0291 34.1759 15.8797C34.4114 15.7179 34.6469 15.5562 34.87 15.3819C35.0932 15.2077 35.3039 15.021 35.5022 14.8219C35.713 14.6352 35.8989 14.4237 36.0849 14.2121C36.2708 13.9881 36.4443 13.7641 36.6055 13.5401C36.6303 13.5028 36.6551 13.453 36.6799 13.4156C36.8038 13.2165 36.9278 13.0174 37.0393 12.8183C37.1757 12.5694 37.2997 12.3205 37.4112 12.0592C37.5228 11.7978 37.622 11.5365 37.7087 11.2627C37.7955 11.0013 37.8575 10.7276 37.9195 10.4538C37.9691 10.1675 38.0186 9.89374 38.0434 9.61996C38.0682 9.33373 38.093 9.04749 38.093 8.77371C38.093 8.57459 38.0806 8.37547 38.0683 8.17635C38.0435 7.89012 38.0063 7.61633 37.9691 7.34255C37.9195 7.05631 37.8575 6.78253 37.7832 6.50874C37.6964 6.2474 37.6096 5.97361 37.5104 5.71227C37.4113 5.45092 37.2873 5.18958 37.1633 4.94068C37.027 4.69179 36.8906 4.44289 36.7419 4.20644C36.5807 3.96999 36.4196 3.74598 36.246 3.52197C36.0601 3.31041 35.8742 3.09884 35.6758 2.88728C35.5767 2.78772 35.4651 2.67572 35.3535 2.57616C34.7957 2.14059 34.2131 1.7299 33.6305 1.35656C33.5437 1.30676 33.4693 1.26945 33.3825 1.23211C32.9735 0.97077 32.5892 0.833804 32.2049 0.709359Z" fill="#E0234E"/>
</svg>
